Coordinates
version=1
nRows=11
nColumns=60
inDegrees=yes

Units are S.I. units (second, meters, Newtons, ...)
If the header above contains a line with 'inDegrees', this indicates whether rotational values are in degrees (yes) or radians (no).

endheader
time	pelvis_tilt	pelvis_list	pelvis_rotation	pelvis_tx	pelvis_ty	pelvis_tz	hip_flexion_r	hip_adduction_r	hip_rotation_r	knee_angle_r_beta	knee_angle_r	ankle_angle_r	subtalar_angle_r	mtp_angle_r	hip_flexion_l	hip_adduction_l	hip_rotation_l	knee_angle_l_beta	knee_angle_l	ankle_angle_l	subtalar_angle_l	mtp_angle_l	L5_S1_Flex_Ext	L5_S1_Lat_Bending	L5_S1_axial_rotation	L4_L5_Flex_Ext	L4_L5_Lat_Bending	L4_L5_axial_rotation	L3_L4_Flex_Ext	L3_L4_Lat_Bending	L3_L4_axial_rotation	L2_L3_Flex_Ext	L2_L3_Lat_Bending	L2_L3_axial_rotation	L1_L2_Flex_Ext	L1_L2_Lat_Bending	L1_L2_axial_rotation	L1_T12_Flex_Ext	L1_T12_Lat_Bending	L1_T12_axial_rotation	Abs_r3	Abs_r2	Abs_r1	Abs_t1	Abs_t2	arm_flex_r	arm_add_r	arm_rot_r	elbow_flex_r	pro_sup_r	wrist_flex_r	wrist_dev_r	arm_flex_l	arm_add_l	arm_rot_l	elbow_flex_l	pro_sup_l	wrist_flex_l	wrist_dev_l
      8.16000000	      0.30099332	     -5.71601516	     93.70260734	      0.39295850	      0.87718397	      0.41967704	     36.47118584	     -6.53530313	     -0.13966710	      0.61783668	    -35.39943401	      6.93963627	      0.00000000	      0.00000000	     37.09717601	     -4.27122293	      0.38615384	      0.59053504	    -33.83516556	      6.77299845	      0.00000000	      0.00000000	    -11.06389972	      0.27137631	     -0.14617798	    -20.54676818	      0.36093050	     -0.15531410	    -18.17688085	      0.65982437	     -0.15531410	    -12.64493099	      0.65982437	     -0.12790573	    -10.27393728	      0.55339058	     -0.11876961	     -6.32191230	      0.42036191	     -0.10963349	    -79.02832933	      3.06986312	     -0.81299808	      0.00000000	      0.00000000	     68.66006925	    -21.83372604	     23.31697055	     62.94734063	     63.72331539	    -22.57258444	     27.61708565	     72.53275901	    -20.74352105	     31.36518144	     58.32606899	     56.07428627	    -22.32165870	     22.79855032
      8.17000000	      0.28543978	     -6.00197182	     93.73257658	      0.39318146	      0.87481854	      0.42120154	     37.32358628	     -6.63146911	     -0.27070970	      0.63162350	    -36.18936095	      7.10368371	      0.00000000	      0.00000000	     37.93505058	     -4.31092505	      0.15276468	      0.60333888	    -34.56877145	      6.93141844	      0.00000000	      0.00000000	    -11.09991471	      0.27030043	     -0.15001950	    -20.61365161	      0.35949957	     -0.15939572	    -18.23604988	      0.65720847	     -0.15939572	    -12.68609253	      0.65720847	     -0.13126706	    -10.30738080	      0.55119664	     -0.12189084	     -6.34249127	      0.41869537	     -0.11251462	    -79.28558080	      3.05769253	     -0.83436345	      0.00000000	      0.00000000	     69.70174727	    -21.67404460	     23.38095581	     62.57318385	     63.71932842	    -22.50200955	     27.64772789	     73.63825267	    -20.68469009	     31.59062611	     57.85974056	     55.83550584	    -22.14165552	     22.72691775
      8.18000000	      0.29520861	     -6.31462442	     93.77608964	      0.39342852	      0.87244203	      0.42262785	     38.13513533	     -6.68599502	     -0.30867799	      0.64360686	    -36.87595658	      7.26749695	      0.00000000	      0.00000000	     38.75223915	     -4.35123034	      0.04923815	      0.61463103	    -35.21576390	      7.07926653	      0.00000000	      0.00000000	    -11.12950520	      0.27024960	     -0.15641964	    -20.66860411	      0.35943197	     -0.16619587	    -18.28466410	      0.65708488	     -0.16619587	    -12.71991150	      0.65708488	     -0.13686719	    -10.33485853	      0.55109299	     -0.12709096	     -6.35939927	      0.41861663	     -0.11731473	    -79.49694271	      3.05711753	     -0.86995912	      0.00000000	      0.00000000	     70.64380507	    -21.50839829	     23.44036295	     62.30252441	     63.70149318	    -22.52078324	     27.58598862	     74.69045234	    -20.68550561	     31.79288269	     57.46683096	     55.63773153	    -21.93449861	     22.60671477
      8.19000000	      0.29640311	     -6.65852921	     93.80332444	      0.39364131	      0.87003926	      0.42401722	     38.97321439	     -6.75351860	     -0.37312586	      0.65520673	    -37.54058049	      7.43381421	      0.00000000	      0.00000000	     39.59967203	     -4.38556747	     -0.08709343	      0.62596120	    -35.86493470	      7.22662600	      0.00000000	      0.00000000	    -11.14992750	      0.27091500	     -0.16336191	    -20.70653036	      0.36031695	     -0.17357202	    -18.31821589	      0.65870273	     -0.17357202	    -12.74325214	      0.65870273	     -0.14294167	    -10.35382267	      0.55244987	     -0.13273155	     -6.37106857	      0.41964734	     -0.12252143	    -79.64281712	      3.06464467	     -0.90856991	      0.00000000	      0.00000000	     71.59935097	    -21.35758724	     23.55173376	     62.02054466	     63.67612338	    -22.52842557	     27.60285003	     75.68462974	    -20.69784209	     31.99248521	     57.10316773	     55.39731486	    -21.76000483	     22.52966559
      8.20000000	      0.30852958	     -7.03740115	     93.81972936	      0.39382308	      0.86761609	      0.42532253	     39.82707125	     -6.81894859	     -0.45387957	      0.66616768	    -38.16859644	      7.60084702	      0.00000000	      0.00000000	     40.46649164	     -4.42218129	     -0.20294233	      0.63713941	    -36.50539938	      7.37987036	      0.00000000	      0.00000000	    -11.16144086	      0.27088500	     -0.17212125	    -20.72791183	      0.36027705	     -0.18287882	    -18.33713120	      0.65862979	     -0.18287882	    -12.75641076	      0.65862979	     -0.15060609	    -10.36451399	      0.55238869	     -0.13984851	     -6.37764731	      0.41960087	     -0.12909093	    -79.72505595	      3.06430531	     -0.95728673	      0.00000000	      0.00000000	     72.51082152	    -21.19351893	     23.68869417	     61.74595206	     63.63803924	    -22.55620520	     27.59903586	     76.61816017	    -20.75149251	     32.19683277	     56.77973532	     55.14068739	    -21.59345156	     22.44280849
      8.21000000	      0.33035245	     -7.38175241	     93.82588981	      0.39401064	      0.86531321	      0.42655611	     40.60973269	     -6.86383307	     -0.51618771	      0.67599916	    -38.73189878	      7.73242674	      0.00000000	      0.00000000	     41.26943287	     -4.45996146	     -0.26027705	      0.64745974	    -37.09671036	      7.51063360	      0.00000000	      0.00000000	    -11.17676201	      0.26964142	     -0.18004701	    -20.75636473	      0.35862309	     -0.19129995	    -18.36230231	      0.65560615	     -0.19129995	    -12.77392130	      0.65560615	     -0.15754114	    -10.37874121	      0.54985279	     -0.14628820	     -6.38640181	      0.41767456	     -0.13503526	    -79.83449338	      3.05023769	     -1.00136747	      0.00000000	      0.00000000	     73.40466055	    -21.02370928	     23.79921086	     61.49791758	     63.60887327	    -22.58473193	     27.65985887	     77.52842670	    -20.81201977	     32.34181022	     56.51285992	     54.95710539	    -21.43366570	     22.46634063
      8.22000000	      0.35589851	     -7.72466545	     93.81380464	      0.39418441	      0.86304038	      0.42768808	     41.37553791	     -6.91049634	     -0.60306033	      0.68545123	    -39.27346268	      7.86124825	      0.00000000	      0.00000000	     42.05745271	     -4.50944652	     -0.32082305	      0.65773521	    -37.68545165	      7.65396390	      0.00000000	      0.00000000	    -11.18826955	      0.26698956	     -0.18720262	    -20.77773538	      0.35509611	     -0.19890278	    -18.38120804	      0.64915841	     -0.19890278	    -12.78707327	      0.64915841	     -0.16380229	    -10.38942710	      0.54444510	     -0.15210213	     -6.39297722	      0.41356682	     -0.14040197	    -79.91669056	      3.02023927	     -1.04116481	      0.00000000	      0.00000000	     74.26372425	    -20.84695492	     23.89896416	     61.24060811	     63.58098572	    -22.60078226	     27.73669914	     78.39660888	    -20.86914441	     32.46166043	     56.26031050	     54.80698197	    -21.27795307	     22.53122757
      8.23000000	      0.39055627	     -8.07629650	     93.80037555	      0.39433143	      0.86078456	      0.42872540	     42.14251693	     -6.95187163	     -0.70647600	      0.69486400	    -39.81277439	      7.99385759	      0.00000000	      0.00000000	     42.85550792	     -4.56695053	     -0.38979081	      0.66816781	    -38.28319541	      7.81922589	      0.00000000	      0.00000000	    -11.19337464	      0.26364502	     -0.19475392	    -20.78721604	      0.35064788	     -0.20692604	    -18.38959519	      0.64102650	     -0.20692604	    -12.79290787	      0.64102650	     -0.17040968	    -10.39416769	      0.53762493	     -0.15823756	     -6.39589427	      0.40838614	     -0.14606544	    -79.95315569	      2.98240520	     -1.08316288	      0.00000000	      0.00000000	     75.07974429	    -20.66642716	     24.00039944	     60.94900160	     63.53732507	    -22.59254065	     27.77810507	     79.21662284	    -20.91858464	     32.58607198	     56.00435344	     54.66568972	    -21.13456960	     22.58596835
      8.24000000	      0.40628806	     -8.32891712	     93.79241343	      0.39439863	      0.85919232	      0.42938578	     42.53765533	     -6.98617250	     -0.74197574	      0.69588871	    -39.87148605	      8.05659279	      0.00000000	      0.00000000	     43.25682179	     -4.58398669	     -0.41012862	      0.66943029	    -38.35553006	      7.88825432	      0.00000000	      0.00000000	    -11.22937850	      0.26300985	     -0.19334117	    -20.85407881	      0.34980309	     -0.20542500	    -18.44874594	      0.63948214	     -0.20542500	    -12.83405669	      0.63948214	     -0.16917353	    -10.42760087	      0.53632968	     -0.15708970	     -6.41646687	      0.40740225	     -0.14500588	    -80.21032768	      2.97521997	     -1.07530561	      0.00000000	      0.00000000	     75.78493332	    -20.61963477	     23.91045899	     60.97790662	     63.62305010	    -22.59157859	     27.65835506	     79.93938783	    -20.92296716	     32.50187865	     56.03011081	     54.75480695	    -21.10139981	     22.48088752
      8.25000000	      0.48178384	     -8.84985084	     93.77484474	      0.39461498	      0.85630624	      0.43051506	     43.70787031	     -7.00580680	     -0.88040599	      0.71274409	    -40.83722834	      8.25929311	      0.00000000	      0.00000000	     44.49158699	     -4.70158650	     -0.52154137	      0.68845166	    -39.44537460	      8.18837261	      0.00000000	      0.00000000	    -11.17228090	      0.25402146	     -0.22192317	    -20.74804286	      0.33784854	     -0.23579337	    -18.35494030	      0.61762777	     -0.23579337	    -12.76879984	      0.61762777	     -0.19418278	    -10.37458005	      0.51800056	     -0.18031258	     -6.38384131	      0.39347924	     -0.16644238	    -79.80248526	      2.87354153	     -1.23427011	      0.00000000	      0.00000000	     76.65188144	    -20.20793978	     24.44646766	     59.96227671	     63.18569474	    -22.44416519	     27.34641639	     80.71783120	    -21.15773467	     33.18021918	     55.46221558	     54.07298607	    -20.99318302	     22.32133167
      8.26000000	      0.49927036	     -9.05959253	     93.77540056	      0.39471017	      0.85491194	      0.43100536	     44.03566191	     -7.02715055	     -0.90583148	      0.71366117	    -40.88977303	      8.30905335	      0.00000000	      0.00000000	     44.83034954	     -4.72241516	     -0.52872339	      0.68952432	    -39.50683354	      8.24073442	      0.00000000	      0.00000000	    -11.20862667	      0.25358731	     -0.22043381	    -20.81554059	      0.33727113	     -0.23421092	    -18.41465275	      0.61657219	     -0.23421092	    -12.81033942	      0.61657219	     -0.19287958	    -10.40833072	      0.51711525	     -0.17910247	     -6.40460928	      0.39280675	     -0.16532535	    -80.06209943	      2.86863039	     -1.22598669	      0.00000000	      0.00000000	     77.29976623	    -20.16674795	     24.35110210	     59.99341082	     63.25809207	    -22.44351804	     27.25943980	     81.39969994	    -21.16029980	     33.10385927	     55.49050213	     54.17183074	    -20.96486433	     22.26832784
